<svg xmlns="http://www.w3.org/2000/svg" style="" data-bbox="-0.0000010050763847857525 185.56285310535083 513.8627568649063 140.87429357549104" viewBox="-0.02 185.55 513.9 140.9"><path text="Baptist Youth " fill="#333747" space="preserve" text-anchor="start" offset="0" font-scale="contain" font-size="48" font-family="Ubuntu" transform="matrix(1.262266755104065, 0, 0, 1.262266755104065, 121.97688293457031, 244.79107666015625)" data-fl-textpath="" font-weight="700" font-style="normal" d="M 14.93 0.43L 14.93 0.43Q 12.19 0.43  9.48 0.26Q 6.77 0.1  3.84-0.53L 3.84-0.53L 3.84-32.78Q 6.14-33.22  8.88-33.43Q 11.62-33.65  13.97-33.65L 13.97-33.65Q 17.14-33.65  19.8-33.19Q 22.46-32.74  24.38-31.63Q 26.3-30.53  27.38-28.73Q 28.46-26.93  28.46-24.29L 28.46-24.29Q 28.46-20.3  24.62-18L 24.62-18Q 27.79-16.8  28.94-14.74Q 30.1-12.67  30.1-10.08L 30.1-10.08Q 30.1-4.85  26.28-2.21Q 22.46 0.43  14.93 0.43ZM 15.84-14.5L 11.14-14.5L 11.14-5.9Q 11.95-5.81  12.91-5.76Q 13.87-5.71  15.02-5.71L 15.02-5.71Q 18.38-5.71  20.45-6.67Q 22.51-7.63  22.51-10.22L 22.51-10.22Q 22.51-12.53  20.78-13.51Q 19.06-14.5  15.84-14.5L 15.84-14.5ZM 11.14-27.46L 11.14-20.21L 14.78-20.21Q 18.24-20.21  19.73-21.1Q 21.22-21.98  21.22-23.95L 21.22-23.95Q 21.22-25.97  19.68-26.78Q 18.14-27.6  15.17-27.6L 15.17-27.6Q 14.21-27.6  13.1-27.58Q 12-27.55  11.14-27.46L 11.14-27.46ZM 45.266-4.99L 45.266-4.99Q 46.316-4.99  47.275999999999996-5.04Q 48.236000000000004-5.09  48.816-5.18L 48.816-5.18L 48.816-10.61Q 48.385999999999996-10.7  47.516-10.8Q 46.656-10.9  45.936-10.9L 45.936-10.9Q 44.926-10.9  44.036-10.78Q 43.156-10.66  42.476-10.32Q 41.806-9.98  41.426-9.41Q 41.036-8.83  41.036-7.97L 41.036-7.97Q 41.036-6.29  42.166-5.64Q 43.296-4.99  45.266-4.99ZM 44.686-25.92L 44.686-25.92Q 47.856-25.92  49.966-25.2Q 52.076-24.48  53.356-23.14Q 54.626000000000005-21.79  55.156-19.87Q 55.676-17.95  55.676-15.6L 55.676-15.6L 55.676-0.72Q 54.146-0.38  51.406 0.07Q 48.676 0.53  44.786 0.53L 44.786 0.53Q 42.336 0.53  40.346000000000004 0.1Q 38.356-0.34  36.916-1.32Q 35.476-2.3  34.706-3.89Q 33.936-5.47  33.936-7.78L 33.936-7.78Q 33.936-9.98  34.826-11.52Q 35.716-13.06  37.196-13.97Q 38.686-14.88  40.606-15.29Q 42.525999999999996-15.7  44.596000000000004-15.7L 44.596000000000004-15.7Q 45.986000000000004-15.7  47.066-15.58Q 48.146-15.46  48.816-15.26L 48.816-15.26L 48.816-15.94Q 48.816-17.76  47.716-18.86Q 46.606-19.97  43.876-19.97L 43.876-19.97Q 42.046-19.97  40.275999999999996-19.7Q 38.496-19.44  37.196-18.96L 37.196-18.96L 36.286-24.72Q 36.916-24.91  37.846000000000004-25.13Q 38.786-25.34  39.886-25.51Q 40.996-25.68  42.216-25.8Q 43.436-25.92  44.686-25.92ZM 78.33999999999999-12.43L 78.33999999999999-12.43Q 78.33999999999999-15.74  76.85-17.74Q 75.35999999999999-19.73  72.42999999999999-19.73L 72.42999999999999-19.73Q 71.46999999999998-19.73  70.66-19.66Q 69.83999999999999-19.58  69.30999999999999-19.49L 69.30999999999999-19.49L 69.30999999999999-6.58Q 69.97999999999999-6.14  71.05999999999999-5.86Q 72.13999999999999-5.57  73.24999999999999-5.57L 73.24999999999999-5.57Q 78.33999999999999-5.57  78.33999999999999-12.43ZM 85.63-12.62L 85.63-12.62Q 85.63-9.7  84.91-7.3Q 84.19-4.9  82.79999999999998-3.17Q 81.41-1.44  79.33999999999999-0.48Q 77.27999999999999 0.48  74.58999999999999 0.48L 74.58999999999999 0.48Q 73.1 0.48  71.80999999999999 0.19Q 70.50999999999999-0.1  69.30999999999999-0.62L 69.30999999999999-0.62L 69.30999999999999 8.88L 62.15999999999999 8.88L 62.15999999999999-24.38Q 63.11999999999999-24.67  64.36999999999999-24.94Q 65.61999999999999-25.2  66.97999999999999-25.39Q 68.35-25.58  69.77-25.7Q 71.17999999999999-25.82  72.47999999999999-25.82L 72.47999999999999-25.82Q 75.6-25.82  78.04999999999998-24.89Q 80.49999999999999-23.95  82.17999999999999-22.25Q 83.85999999999999-20.54  84.74-18.1Q 85.63-15.65  85.63-12.62ZM 90.912-10.32L 90.912-31.54L 98.062-32.69L 98.062-25.25L 106.652-25.25L 106.652-19.3L 98.062-19.3L 98.062-10.42Q 98.062-8.16  98.852-6.82Q 99.652-5.47  102.052-5.47L 102.052-5.47Q 103.202-5.47  104.422-5.69Q 105.652-5.9  106.652-6.29L 106.652-6.29L 107.662-0.72Q 106.372-0.19  104.782 0.19Q 103.202 0.58  100.892 0.58L 100.892 0.58Q 97.97200000000001 0.58  96.052-0.22Q 94.132-1.01  92.97200000000001-2.42Q 91.822-3.84  91.372-5.86Q 90.912-7.87  90.912-10.32L 90.912-10.32ZM 119.61399999999999-25.25L 119.61399999999999 0L 112.46399999999998 0L 112.46399999999998-25.25L 119.61399999999999-25.25ZM 120.28399999999999-32.54L 120.28399999999999-32.54Q 120.28399999999999-30.58  119.01399999999998-29.45Q 117.74399999999999-28.32  116.01399999999998-28.32L 116.01399999999998-28.32Q 114.28399999999999-28.32  113.01399999999998-29.45Q 111.74399999999999-30.58  111.74399999999999-32.54L 111.74399999999999-32.54Q 111.74399999999999-34.51  113.01399999999998-35.64Q 114.28399999999999-36.77  116.01399999999998-36.77L 116.01399999999998-36.77Q 117.74399999999999-36.77  119.01399999999998-35.64Q 120.28399999999999-34.51  120.28399999999999-32.54ZM 133.58599999999998-5.14L 133.58599999999998-5.14Q 135.55599999999998-5.14  136.36599999999999-5.52Q 137.18599999999998-5.9  137.18599999999998-7.01L 137.18599999999998-7.01Q 137.18599999999998-7.87  136.12599999999998-8.52Q 135.076-9.17  132.916-9.98L 132.916-9.98Q 131.236-10.61  129.86599999999999-11.28Q 128.49599999999998-11.95  127.53599999999999-12.89Q 126.57599999999998-13.82  126.04599999999998-15.12Q 125.51599999999999-16.42  125.51599999999999-18.24L 125.51599999999999-18.24Q 125.51599999999999-21.79  128.15599999999998-23.86Q 130.796-25.92  135.40599999999998-25.92L 135.40599999999998-25.92Q 137.71599999999998-25.92  139.826-25.51Q 141.93599999999998-25.1  143.18599999999998-24.62L 143.18599999999998-24.62L 141.93599999999998-19.06Q 140.68599999999998-19.49  139.226-19.82Q 137.75599999999997-20.16  135.93599999999998-20.16L 135.93599999999998-20.16Q 132.576-20.16  132.576-18.29L 132.576-18.29Q 132.576-17.86  132.71599999999998-17.52Q 132.86599999999999-17.18  133.296-16.87Q 133.726-16.56  134.476-16.2Q 135.21599999999998-15.84  136.36599999999999-15.41L 136.36599999999999-15.41Q 138.71599999999998-14.54  140.25599999999997-13.7Q 141.796-12.86  142.676-11.88Q 143.56599999999997-10.9  143.926-9.7Q 144.28599999999997-8.5  144.28599999999997-6.91L 144.28599999999997-6.91Q 144.28599999999997-3.17  141.476-1.25Q 138.676 0.67  133.53599999999997 0.67L 133.53599999999997 0.67Q 130.176 0.67  127.94599999999998 0.1Q 125.71599999999998-0.48  124.84599999999999-0.86L 124.84599999999999-0.86L 126.04599999999998-6.67Q 127.87599999999999-5.95  129.796-5.54Q 131.71599999999998-5.14  133.58599999999998-5.14ZM 149.376-10.32L 149.376-31.54L 156.526-32.69L 156.526-25.25L 165.11599999999999-25.25L 165.11599999999999-19.3L 156.526-19.3L 156.526-10.42Q 156.526-8.16  157.316-6.82Q 158.11599999999999-5.47  160.516-5.47L 160.516-5.47Q 161.666-5.47  162.886-5.69Q 164.11599999999999-5.9  165.11599999999999-6.29L 165.11599999999999-6.29L 166.126-0.72Q 164.836-0.19  163.246 0.19Q 161.666 0.58  159.356 0.58L 159.356 0.58Q 156.436 0.58  154.516-0.22Q 152.596-1.01  151.436-2.42Q 150.286-3.84  149.836-5.86Q 149.376-7.87  149.376-10.32L 149.376-10.32ZM 195.11800000000002-19.58L 195.11800000000002-19.58Q 197.13800000000003-22.99  198.95800000000003-26.4Q 200.788-29.81  202.318-33.26L 202.318-33.26L 210.57800000000003-33.26Q 207.83800000000002-27.89  204.90800000000002-22.85Q 201.98800000000003-17.81  198.71800000000002-12.72L 198.71800000000002-12.72L 198.71800000000002 0L 191.228 0L 191.228-12.62Q 187.96800000000002-17.71  185.01800000000003-22.8Q 182.068-27.89  179.32800000000003-33.26L 179.32800000000003-33.26L 188.01800000000003-33.26Q 189.54800000000003-29.81  191.32800000000003-26.4Q 193.10800000000003-22.99  195.11800000000002-19.58ZM 233.572-12.67L 233.572-12.67Q 233.572-9.7  232.702-7.22Q 231.842-4.75  230.21200000000002-3Q 228.572-1.25  226.292-0.29Q 224.012 0.67  221.18200000000002 0.67L 221.18200000000002 0.67Q 218.40200000000002 0.67  216.122-0.29Q 213.842-1.25  212.21200000000002-3Q 210.572-4.75  209.662-7.22Q 208.752-9.7  208.752-12.67L 208.752-12.67Q 208.752-15.65  209.692-18.1Q 210.622-20.54  212.282-22.27Q 213.93200000000002-24  216.21200000000002-24.96Q 218.49200000000002-25.92  221.18200000000002-25.92L 221.18200000000002-25.92Q 223.92200000000003-25.92  226.202-24.96Q 228.48200000000003-24  230.11200000000002-22.27Q 231.74200000000002-20.54  232.65200000000002-18.1Q 233.572-15.65  233.572-12.67ZM 226.27200000000002-12.67L 226.27200000000002-12.67Q 226.27200000000002-15.98  224.952-17.88Q 223.632-19.78  221.18200000000002-19.78L 221.18200000000002-19.78Q 218.73200000000003-19.78  217.39200000000002-17.88Q 216.05200000000002-15.98  216.05200000000002-12.67L 216.05200000000002-12.67Q 216.05200000000002-9.36  217.39200000000002-7.42Q 218.73200000000003-5.47  221.18200000000002-5.47L 221.18200000000002-5.47Q 223.632-5.47  224.952-7.42Q 226.27200000000002-9.36  226.27200000000002-12.67ZM 260.63800000000003-25.25L 260.63800000000003-0.86Q 258.818-0.34  255.93800000000002 0.12Q 253.058 0.58  249.888 0.58L 249.888 0.58Q 246.668 0.58  244.538-0.29Q 242.398-1.15  241.148-2.71Q 239.90800000000002-4.27  239.37800000000001-6.43Q 238.848-8.59  238.848-11.18L 238.848-11.18L 238.848-25.25L 245.99800000000002-25.25L 245.99800000000002-12.05Q 245.99800000000002-8.59  246.90800000000002-7.06Q 247.828-5.52  250.318-5.52L 250.318-5.52Q 251.08800000000002-5.52  251.948-5.59Q 252.818-5.66  253.488-5.76L 253.488-5.76L 253.488-25.25L 260.63800000000003-25.25ZM 267.12-10.32L 267.12-31.54L 274.27-32.69L 274.27-25.25L 282.86-25.25L 282.86-19.3L 274.27-19.3L 274.27-10.42Q 274.27-8.16  275.06-6.82Q 275.86-5.47  278.26-5.47L 278.26-5.47Q 279.41-5.47  280.63-5.69Q 281.86-5.9  282.86-6.29L 282.86-6.29L 283.87-0.72Q 282.58-0.19  280.99 0.19Q 279.41 0.58  277.1 0.58L 277.1 0.58Q 274.18 0.58  272.26-0.22Q 270.34-1.01  269.18-2.42Q 268.03-3.84  267.58-5.86Q 267.12-7.87  267.12-10.32L 267.12-10.32ZM 295.822 0L 288.672 0L 288.672-36.1L 295.822-37.25L 295.822-25.15Q 296.54200000000003-25.39  297.672-25.61Q 298.802-25.82  299.85200000000003-25.82L 299.85200000000003-25.82Q 302.932-25.82  304.97200000000004-24.98Q 307.012-24.14  308.232-22.61Q 309.452-21.07  309.962-18.96Q 310.462-16.85  310.462-14.26L 310.462-14.26L 310.462 0L 303.312 0L 303.312-13.39Q 303.312-16.85  302.422-18.29Q 301.53200000000004-19.73  299.132-19.73L 299.132-19.73Q 298.172-19.73  297.332-19.56Q 296.492-19.39  295.822-19.2L 295.822-19.2L 295.822 0Z"/><g transform="matrix(0.8196180462837219, 0, 0, 0.8196180462837219, -39.34166717529297, 73.50799560546875)"><g transform="matrix(1.9531588554382324, 0, 0, 1.9531588554382324, 27.580556869506836, 124.99699401855469)" fill="#333747"><path d="M53.6 15.2c-1-4.4 2.8-8.2 7.2-7.2c2.2 0.5 4 2.3 4.5 4.5c1 4.4-2.8 8.2-7.2 7.2C55.9 19.2 54.1 17.4 53.6 15.2z M77.2 71.3  c-3.4-0.5-6.2 2.4-5.7 5.7c0.3 2.1 2 3.8 4.1 4.1c3.4 0.5 6.2-2.4 5.7-5.7C81.1 73.4 79.3 71.6 77.2 71.3z M50.2 42.5  c-4.1 0-7.5 3.4-7.5 7.5s3.4 7.5 7.5 7.5s7.5-3.4 7.5-7.5S54.3 42.5 50.2 42.5z M81 50c7.4 8.3 10.5 16.5 7.3 22  c-1 1.8-2.7 3.2-4.8 4.2c0-1.1-0.3-2.1-0.7-3c1.3-0.7 2.3-1.6 3-2.7c2.5-4.3-0.4-11.1-6.7-18.3c-2.9 3-6.3 5.9-10 8.6  c-0.5 4.7-1.3 9.1-2.4 13c1.1 0.2 2.2 0.4 3.2 0.6c-0.2 0.6-0.3 1.2-0.3 1.9c0 0.4 0 0.8 0.1 1.1c-1.3-0.2-2.6-0.4-3.9-0.7  C62.1 87.3 56.6 94 50.2 94c-6.4 0-11.9-6.7-15.4-17.3c-1.4 0.3-2.8 0.5-4.1 0.7c-1.8 0.2-3.5 0.3-5.1 0.3c-6.6 0-11.3-2-13.5-5.7  c-1.2-2.1-1.5-4.6-1-7.3c0.8 0.6 1.8 1 2.9 1c-0.2 1.8 0 3.5 0.8 4.8c2 3.5 7.7 4.9 15.6 3.9c1.2-0.2 2.4-0.4 3.6-0.6  c-1.1-3.9-1.9-8.3-2.4-13c-3.8-2.7-7.1-5.6-10.1-8.6c-0.8 0.9-1.6 1.9-2.3 2.8c-0.1 0.2-0.2 0.3-0.4 0.5c-0.6-0.6-1.3-1-2-1.3  c-0.1-0.3-0.1-0.4-0.2-0.7c0.9-1.2 1.8-2.3 2.8-3.5c-1-1.1-1.9-2.1-2.7-3.2C11 39.3 9.4 32.7 12.1 28c2.7-4.7 9.3-6.6 18.6-5.4  c1.3 0.2 2.7 0.4 4.1 0.7C38.2 12.7 43.8 6 50.2 6c1.6 0 3.2 0.4 4.7 1.3c-0.9 0.6-1.6 1.4-2.2 2.2C51.9 9.2 51 9 50.2 9  c-4.9 0-9.5 5.9-12.5 15c4 1 8.2 2.5 12.5 4.4c4.2-1.9 8.5-3.4 12.5-4.4c-0.3-0.8-0.6-1.7-0.9-2.5c1-0.3 1.9-0.8 2.7-1.4  c0.4 1 0.8 2.1 1.2 3.2c1.4-0.3 2.8-0.5 4.1-0.7c9.3-1.2 15.9 0.7 18.6 5.4c2.7 4.7 1.1 11.3-4.6 18.8C82.9 47.8 82 48.9 81 50z   M66.5 26.2c1.1 3.9 1.9 8.3 2.4 13c3.8 2.8 7.2 5.7 10.1 8.6c0.8-0.9 1.6-1.9 2.3-2.8c4.8-6.3 6.4-12 4.4-15.5  c-1.6-2.8-5.5-4.2-10.9-4.2c-1.4 0-3 0.1-4.7 0.3C68.9 25.7 67.7 25.9 66.5 26.2z M53.8 30.1c2 1 4 2.1 6 3.2c2 1.2 3.9 2.3 5.7 3.6  c-0.5-3.6-1.2-6.9-2-10C60.4 27.7 57.1 28.7 53.8 30.1z M66 40.8c-2.4-1.7-5-3.4-7.7-5c-2.7-1.6-5.4-3-8.1-4.2  c-2.7 1.2-5.4 2.7-8.1 4.2c-2.7 1.6-5.3 3.2-7.7 4.9c-0.3 3-0.4 6-0.4 9.2c0 3.1 0.2 6.2 0.4 9.2c2.4 1.7 5 3.4 7.7 4.9  c2.7 1.6 5.4 3 8.1 4.2c2.7-1.2 5.4-2.7 8.1-4.2c2.7-1.6 5.3-3.2 7.7-4.9c0.3-3 0.4-6 0.4-9.2C66.5 46.9 66.3 43.8 66 40.8z   M36.8 26.8c-0.9 3.1-1.5 6.4-2 10c1.8-1.2 3.8-2.4 5.7-3.6c2-1.1 4-2.2 6-3.2C43.2 28.7 40 27.6 36.8 26.8z M19.1 45  c0.7 0.9 1.5 1.9 2.3 2.8c2.9-3 6.3-5.9 10.1-8.6c0.5-4.7 1.3-9.1 2.4-13c-1.2-0.3-2.4-0.5-3.6-0.6c-1.7-0.2-3.2-0.3-4.7-0.3  c-5.4 0-9.3 1.5-10.9 4.2C12.6 33 14.2 38.6 19.1 45z M31.1 56.8c-0.1-2.2-0.2-4.5-0.2-6.8c0-2.3 0.1-4.6 0.2-6.8  c-2.8 2.2-5.4 4.5-7.7 6.8C25.7 52.3 28.3 54.6 31.1 56.8z M36.8 73.2c3.1-0.8 6.4-1.9 9.7-3.2c-2-1-4-2.1-6-3.2  c-2-1.1-3.9-2.3-5.7-3.6C35.3 66.7 36 70.1 36.8 73.2z M62.7 76c-4-1-8.2-2.5-12.5-4.4c-4.3 1.9-8.5 3.4-12.5 4.4  c3 9.1 7.5 15 12.5 15C55.1 91 59.6 85.1 62.7 76z M65.6 63.1c-1.8 1.2-3.8 2.4-5.7 3.6c-2 1.1-4 2.2-6 3.2c3.3 1.3 6.6 2.4 9.7 3.2  C64.4 70.1 65.1 66.7 65.6 63.1z M76.9 50c-2.2-2.3-4.8-4.6-7.7-6.8c0.1 2.2 0.2 4.5 0.2 6.8c0 2.3-0.1 4.6-0.2 6.8  C72.1 54.6 74.6 52.3 76.9 50z M13.8 63.7c2.7 0.4 5-1.9 4.6-4.6c-0.3-1.7-1.6-3.1-3.3-3.3c-2.7-0.4-5 1.9-4.6 4.6  C10.8 62.1 12.1 63.4 13.8 63.7z" transform="matrix(1, 0, 0, 1, 0, 0)" fill="#333747"/></g><path transform="matrix(0.16042780876159668, 0, 0, 0.16042780876159668, 117.3463363647461, 214.6293182373047)" data-type="circle" data-cx="50" data-cy="50" data-r="50" d="M50 50m-50 0a50 50 0 1 0 100 0a50 50 0 1 0 -100 0" fill="rgba(227,17,50,1)"/><path transform="matrix(0.08217416703701019, 0, 0, 0.08217416703701019, 172.4744415283203, 269.7574462890625)" fill="rgba(227,17,50,1)" data-type="circle" data-cx="50" data-cy="50" data-r="50" d="M50 50m-50 0a50 50 0 1 0 100 0a50 50 0 1 0 -100 0"/><path transform="matrix(0.11053751409053802, 0, 0, 0.11053751409053802, 138.0159454345703, 146.51744079589844)" fill="rgba(227,17,50,1)" data-type="circle" data-cx="50" data-cy="50" data-r="50" d="M50 50m-50 0a50 50 0 1 0 100 0a50 50 0 1 0 -100 0"/><path transform="matrix(0.06109251454472542, 0, 0, 0.06109251454472542, 52.60169982910156, 238.7217559814453)" fill="rgba(227,17,50,1)" data-type="circle" data-cx="50" data-cy="50" data-r="50" d="M50 50m-50 0a50 50 0 1 0 100 0a50 50 0 1 0 -100 0"/></g><path text="Conference" fill="#333747" space="preserve" text-anchor="start" offset="0" font-scale="contain" font-size="48" font-family="Ubuntu" transform="matrix(1.262266755104065, 0, 0, 1.262266755104065, 151.10069274902344, 306.4239807128906)" data-fl-textpath="" font-weight="700" font-style="normal" d="M 19.01 0.67L 19.01 0.67Q 10.9 0.67  6.65-3.84Q 2.4-8.35  2.4-16.66L 2.4-16.66Q 2.4-20.78  3.7-24.02Q 4.99-27.26  7.25-29.5Q 9.5-31.73  12.62-32.88Q 15.74-34.03  19.39-34.03L 19.39-34.03Q 21.5-34.03  23.23-33.72Q 24.96-33.41  26.26-33Q 27.55-32.59  28.42-32.16Q 29.28-31.73  29.66-31.49L 29.66-31.49L 27.5-25.44Q 25.97-26.26  23.93-26.83Q 21.89-27.41  19.3-27.41L 19.3-27.41Q 17.57-27.41  15.91-26.83Q 14.26-26.26  12.98-24.98Q 11.71-23.71  10.94-21.7Q 10.18-19.68  10.18-16.8L 10.18-16.8Q 10.18-14.5  10.68-12.5Q 11.18-10.51  12.31-9.07Q 13.44-7.63  15.26-6.79Q 17.09-5.95  19.68-5.95L 19.68-5.95Q 21.31-5.95  22.61-6.14Q 23.9-6.34  24.91-6.6Q 25.92-6.86  26.69-7.2Q 27.46-7.54  28.08-7.82L 28.08-7.82L 30.14-1.82Q 28.56-0.86  25.68-0.1Q 22.8 0.67  19.01 0.67ZM 57.507999999999996-12.67L 57.507999999999996-12.67Q 57.507999999999996-9.7  56.638-7.22Q 55.778-4.75  54.147999999999996-3Q 52.507999999999996-1.25  50.227999999999994-0.29Q 47.948 0.67  45.117999999999995 0.67L 45.117999999999995 0.67Q 42.338 0.67  40.058-0.29Q 37.778-1.25  36.147999999999996-3Q 34.507999999999996-4.75  33.598-7.22Q 32.688-9.7  32.688-12.67L 32.688-12.67Q 32.688-15.65  33.628-18.1Q 34.558-20.54  36.217999999999996-22.27Q 37.867999999999995-24  40.147999999999996-24.96Q 42.428-25.92  45.117999999999995-25.92L 45.117999999999995-25.92Q 47.858-25.92  50.138-24.96Q 52.418-24  54.048-22.27Q 55.678-20.54  56.587999999999994-18.1Q 57.507999999999996-15.65  57.507999999999996-12.67ZM 50.208-12.67L 50.208-12.67Q 50.208-15.98  48.888-17.88Q 47.568-19.78  45.117999999999995-19.78L 45.117999999999995-19.78Q 42.668-19.78  41.328-17.88Q 39.988-15.98  39.988-12.67L 39.988-12.67Q 39.988-9.36  41.328-7.42Q 42.668-5.47  45.117999999999995-5.47L 45.117999999999995-5.47Q 47.568-5.47  48.888-7.42Q 50.208-9.36  50.208-12.67ZM 63.023999999999994 0L 63.023999999999994-24.38Q 64.844-24.91  67.72399999999999-25.37Q 70.604-25.82  73.774-25.82L 73.774-25.82Q 76.994-25.82  79.124-24.98Q 81.264-24.14  82.514-22.61Q 83.764-21.07  84.28399999999999-18.96Q 84.814-16.85  84.814-14.26L 84.814-14.26L 84.814 0L 77.66399999999999 0L 77.66399999999999-13.39Q 77.66399999999999-16.85  76.75399999999999-18.29Q 75.844-19.73  73.344-19.73L 73.344-19.73Q 72.574-19.73  71.714-19.66Q 70.844-19.58  70.17399999999999-19.49L 70.17399999999999-19.49L 70.17399999999999 0L 63.023999999999994 0ZM 102.236-37.25L 102.236-37.25Q 104.256-37.25  105.936-36.84Q 107.61600000000001-36.43  108.52600000000001-36.05L 108.52600000000001-36.05L 107.13600000000001-30.34Q 106.176-30.77  105.046-30.98Q 103.91600000000001-31.2  102.956-31.2L 102.956-31.2Q 101.66600000000001-31.2  100.77600000000001-30.84Q 99.88600000000001-30.48  99.38600000000001-29.86Q 98.876-29.23  98.66600000000001-28.37Q 98.44600000000001-27.5  98.44600000000001-26.5L 98.44600000000001-26.5L 98.44600000000001-25.25L 107.27600000000001-25.25L 107.27600000000001-19.3L 98.44600000000001-19.3L 98.44600000000001 0L 91.296 0L 91.296-26.59Q 91.296-31.49  94.05600000000001-34.37Q 96.816-37.25  102.236-37.25ZM 109.968-12.43L 109.968-12.43Q 109.968-15.79  110.998-18.31Q 112.028-20.83  113.70800000000001-22.51Q 115.388-24.19  117.578-25.06Q 119.75800000000001-25.92  122.06800000000001-25.92L 122.06800000000001-25.92Q 127.438-25.92  130.558-22.63Q 133.678-19.34  133.678-12.96L 133.678-12.96Q 133.678-12.34  133.62800000000001-11.59Q 133.58800000000002-10.85  133.538-10.27L 133.538-10.27L 117.308-10.27Q 117.548-8.06  119.37800000000001-6.77Q 121.19800000000001-5.47  124.268-5.47L 124.268-5.47Q 126.238-5.47  128.138-5.83Q 130.02800000000002-6.19  131.228-6.72L 131.228-6.72L 132.18800000000002-0.91Q 131.618-0.62  130.65800000000002-0.34Q 129.698-0.05  128.518 0.17Q 127.34800000000001 0.38  125.998 0.53Q 124.65800000000002 0.67  123.308 0.67L 123.308 0.67Q 119.908 0.67  117.388-0.34Q 114.86800000000001-1.34  113.20800000000001-3.1Q 111.548-4.85  110.75800000000001-7.25Q 109.968-9.65  109.968-12.43ZM 117.308-15.17L 126.768-15.17Q 126.718-16.08  126.458-16.94Q 126.188-17.81  125.638-18.48Q 125.08800000000001-19.15  124.248-19.58Q 123.408-20.02  122.158-20.02L 122.158-20.02Q 120.95800000000001-20.02  120.09800000000001-19.61Q 119.22800000000001-19.2  118.658-18.53Q 118.078-17.86  117.768-16.97Q 117.45800000000001-16.08  117.308-15.17L 117.308-15.17ZM 155.62-24.82L 154.42000000000002-18.91Q 153.46-19.15  152.16-19.42Q 150.86-19.68  149.38-19.68L 149.38-19.68Q 148.7-19.68  147.77-19.56Q 146.83-19.44  146.35-19.3L 146.35-19.3L 146.35 0L 139.20000000000002 0L 139.20000000000002-23.9Q 141.12-24.58  143.74-25.18Q 146.35-25.78  149.57-25.78L 149.57-25.78Q 150.14000000000001-25.78  150.96-25.7Q 151.78-25.63  152.59-25.51Q 153.41-25.39  154.22-25.22Q 155.04-25.06  155.62-24.82L 155.62-24.82ZM 157.776-12.43L 157.776-12.43Q 157.776-15.79  158.806-18.31Q 159.836-20.83  161.51600000000002-22.51Q 163.19600000000003-24.19  165.38600000000002-25.06Q 167.566-25.92  169.876-25.92L 169.876-25.92Q 175.246-25.92  178.366-22.63Q 181.48600000000002-19.34  181.48600000000002-12.96L 181.48600000000002-12.96Q 181.48600000000002-12.34  181.436-11.59Q 181.39600000000002-10.85  181.346-10.27L 181.346-10.27L 165.116-10.27Q 165.35600000000002-8.06  167.186-6.77Q 169.00600000000003-5.47  172.07600000000002-5.47L 172.07600000000002-5.47Q 174.04600000000002-5.47  175.94600000000003-5.83Q 177.836-6.19  179.036-6.72L 179.036-6.72L 179.996-0.91Q 179.42600000000002-0.62  178.466-0.34Q 177.50600000000003-0.05  176.32600000000002 0.17Q 175.156 0.38  173.806 0.53Q 172.466 0.67  171.116 0.67L 171.116 0.67Q 167.716 0.67  165.19600000000003-0.34Q 162.67600000000002-1.34  161.01600000000002-3.1Q 159.35600000000002-4.85  158.566-7.25Q 157.776-9.65  157.776-12.43ZM 165.116-15.17L 174.57600000000002-15.17Q 174.526-16.08  174.26600000000002-16.94Q 173.996-17.81  173.44600000000003-18.48Q 172.89600000000002-19.15  172.056-19.58Q 171.216-20.02  169.966-20.02L 169.966-20.02Q 168.76600000000002-20.02  167.906-19.61Q 167.036-19.2  166.466-18.53Q 165.88600000000002-17.86  165.57600000000002-16.97Q 165.26600000000002-16.08  165.116-15.17L 165.116-15.17ZM 187.00800000000004 0L 187.00800000000004-24.38Q 188.82800000000003-24.91  191.70800000000003-25.37Q 194.58800000000002-25.82  197.75800000000004-25.82L 197.75800000000004-25.82Q 200.978-25.82  203.10800000000003-24.98Q 205.24800000000002-24.14  206.49800000000002-22.61Q 207.74800000000002-21.07  208.26800000000003-18.96Q 208.79800000000003-16.85  208.79800000000003-14.26L 208.79800000000003-14.26L 208.79800000000003 0L 201.64800000000002 0L 201.64800000000002-13.39Q 201.64800000000002-16.85  200.73800000000003-18.29Q 199.82800000000003-19.73  197.32800000000003-19.73L 197.32800000000003-19.73Q 196.55800000000002-19.73  195.69800000000004-19.66Q 194.82800000000003-19.58  194.15800000000002-19.49L 194.15800000000002-19.49L 194.15800000000002 0L 187.00800000000004 0ZM 214.08-12.62L 214.08-12.62Q 214.08-15.36  214.97000000000003-17.78Q 215.86-20.21  217.54000000000002-22.01Q 219.22000000000003-23.81  221.62-24.86Q 224.02-25.92  227.09-25.92L 227.09-25.92Q 229.10000000000002-25.92  230.78000000000003-25.56Q 232.46-25.2  234.05-24.53L 234.05-24.53L 232.56-18.82Q 231.55-19.2  230.35000000000002-19.49Q 229.15-19.78  227.66000000000003-19.78L 227.66000000000003-19.78Q 224.50000000000003-19.78  222.94000000000003-17.81Q 221.38000000000002-15.84  221.38000000000002-12.62L 221.38000000000002-12.62Q 221.38000000000002-9.22  222.84-7.34Q 224.3-5.47  227.95000000000002-5.47L 227.95000000000002-5.47Q 229.25-5.47  230.74-5.71Q 232.22000000000003-5.95  233.47000000000003-6.48L 233.47000000000003-6.48L 234.48000000000002-0.62Q 233.23000000000002-0.1  231.36 0.29Q 229.49 0.67  227.23000000000002 0.67L 227.23000000000002 0.67Q 223.78000000000003 0.67  221.28000000000003-0.36Q 218.78000000000003-1.39  217.18-3.17Q 215.57000000000002-4.94  214.82000000000002-7.37Q 214.08-9.79  214.08-12.62ZM 236.88000000000002-12.43L 236.88000000000002-12.43Q 236.88000000000002-15.79  237.91000000000003-18.31Q 238.94000000000003-20.83  240.62000000000003-22.51Q 242.30000000000004-24.19  244.49000000000004-25.06Q 246.67000000000002-25.92  248.98000000000002-25.92L 248.98000000000002-25.92Q 254.35000000000002-25.92  257.47-22.63Q 260.59000000000003-19.34  260.59000000000003-12.96L 260.59000000000003-12.96Q 260.59000000000003-12.34  260.54-11.59Q 260.5-10.85  260.45000000000005-10.27L 260.45000000000005-10.27L 244.22000000000003-10.27Q 244.46000000000004-8.06  246.29000000000002-6.77Q 248.11-5.47  251.18000000000004-5.47L 251.18000000000004-5.47Q 253.15000000000003-5.47  255.05-5.83Q 256.94000000000005-6.19  258.14000000000004-6.72L 258.14000000000004-6.72L 259.1-0.91Q 258.53000000000003-0.62  257.57000000000005-0.34Q 256.61-0.05  255.43000000000004 0.17Q 254.26000000000002 0.38  252.91000000000003 0.53Q 251.57000000000002 0.67  250.22000000000003 0.67L 250.22000000000003 0.67Q 246.82000000000002 0.67  244.30000000000004-0.34Q 241.78000000000003-1.34  240.12000000000003-3.1Q 238.46000000000004-4.85  237.67000000000002-7.25Q 236.88000000000002-9.65  236.88000000000002-12.43ZM 244.22000000000003-15.17L 253.68000000000004-15.17Q 253.63000000000002-16.08  253.37000000000003-16.94Q 253.10000000000002-17.81  252.55-18.48Q 252.00000000000003-19.15  251.16000000000003-19.58Q 250.32000000000002-20.02  249.07000000000002-20.02L 249.07000000000002-20.02Q 247.87000000000003-20.02  247.01000000000002-19.61Q 246.14000000000001-19.2  245.57000000000002-18.53Q 244.99000000000004-17.86  244.68000000000004-16.97Q 244.37000000000003-16.08  244.22000000000003-15.17L 244.22000000000003-15.17Z"/></svg>